<svg version="1.2" xmlns="http://www.w3.org/2000/svg" viewBox="0 0 500 181" width="500" height="181">
	<title>Proyecto nuevo</title>
	<style>
		.s0 { fill: #ffffff } 
	</style>
	<g id="&lt;Group&gt;">
		<path id="&lt;Compound Path&gt;" class="s0" d="m92 65.6c0 20.8-14.5 34-31.8 34-21.5 0-15.4-26.4-7.8-26.4-1.5 1.7 0.7 4.9 4.8 4.9 10.4 0 12.7-22.9-1.2-22.9-9 0-13.9 17.4-13.9 25.7v17.3h-27.7v-92.2h27.7v36.7c0 0-2 3.6-2.7 5.6-2.8 7.6-4.2 16.6-4.2 22.2h2.8c0-16.7 7.6-36.1 26.3-36.1 20.8 0 27.7 18.7 27.7 31.2z"/>
		<path id="&lt;Compound Path&gt;" fill-rule="evenodd" class="s0" d="m128.8 99.6c-24.3 0-38.1-14.6-38.1-32.6 0-18 13.8-32.6 38.1-32.6 21.5 0 34.6 13.9 34.6 34.7h-45c0 6.9 6.6 9 10.4 9 4.3 0 9.7-2.1 11.8-6.9l22.8 9.4c-5.2 11.2-17 19-34.6 19zm-10.6-39.5h21c0-2.8-4.5-7.4-10.7-7.4-6.2 0-10.3 4.6-10.3 7.4z"/>
		<path id="&lt;Compound Path&gt;" fill-rule="evenodd" class="s0" d="m203 99.6c-24.3 0-38.2-14.6-38.2-32.6 0-18 13.9-32.6 38.2-32.6 21.4 0 34.6 13.9 34.6 34.7h-45c0 6.9 6.6 9 10.4 9 4.3 0 9.7-2.1 11.7-6.9l22.9 9.4c-5.2 11.2-17 19-34.6 19zm-10.6-39.5h21c0-2.8-4.5-7.4-10.7-7.4-6.3 0-10.3 4.6-10.3 7.4z"/>
		<path id="&lt;Compound Path&gt;" class="s0" d="m252.9 99.6c-7.9 0-12.5-5.3-12.5-11.8 0-6.5 4.6-11.8 12.5-11.8 8 0 12.4 5.3 12.4 11.8 0 6.5-4.4 11.8-12.4 11.8z"/>
		<path id="&lt;Compound Path&gt;" class="s0" d="m112.8 173v-14.5c0-13.2 0.7-21.5-8.3-21.5-8.3 0-13.1 9-13.1 16.7v19.3h-26.4-1.4c-0.1-0.1 0-2.8 0-14.5 0-8.5 1.4-21.5-7.6-21.5-9 0-13.9 10.4-13.9 18.7v17.3h-27.7v-62.4h26.5c5.4 0 1.4 6-0.8 11.1-2.8 6.2-4.9 18-4.9 23.6h2.8c0-15.3 5.5-36.1 25.6-36.1 3.9 0 7.2 0.4 10.1 1.4 7.4 2.2 15.6 9 13.5 15.3-2.1 6.2-3.5 14.1-3.5 19.4h2.8c0-6.3 1-12.8 3.1-18.6 3.7-9.8 10.8-17.5 22.6-17.5 29.1 0 28.4 27.8 28.4 34.7v29.1z"/>
		<path id="&lt;Compound Path&gt;" fill-rule="evenodd" class="s0" d="m178.7 174.4c-24.3 0-38.1-14.6-38.1-32.6 0-18 13.8-32.6 38.1-32.6 21.5 0 34.7 13.9 34.7 34.7h-45.1c0 6.9 6.7 9 10.4 9 4.3 0 9.7-2.1 11.8-6.9l22.9 9.4c-5.3 11.2-17.1 19-34.7 19zm-10.5-39.5h20.9c0-2.8-4.4-7.4-10.7-7.4-6.2 0-10.2 4.6-10.2 7.4z"/>
		<path id="&lt;Compound Path&gt;" class="s0" d="m294.6 143.9v29.1h-27.7v-15.9c0-13.2-0.2-20.1-9.2-20.1-9 0-13.8 10.4-13.8 18.7v17.3h-27.8v-62.4h26.6c5.3 0 1.4 6-0.9 11.1-2.8 6.2-4.9 18-4.9 23.6h2.8c0-16.7 6.9-36.1 25.6-36.1 29.2 0 29.3 27.8 29.3 34.7z"/>
		<path id="&lt;Compound Path&gt;" class="s0" d="m336.2 152.2c0 4.2-1.4 10.4-5.6 16h2.8c3.5-4.2 5.6-11.1 5.6-16h18c0 0-0.7 22.2-24.3 22.2-13.6 0-24.2-5.6-24.2-24.7v-18.3h-13.9v-20.8h13.9v-20.8h27.7v20.8h20.8v20.8h-20.8z"/>
		<path id="&lt;Compound Path&gt;" fill-rule="evenodd" class="s0" d="m395.1 174.4c-24.3 0-38.1-14.6-38.1-32.6 0-18 13.8-32.6 38.1-32.6 21.5 0 34.7 13.9 34.7 34.7h-45.1c0 6.9 6.7 9 10.4 9 4.3 0 9.7-2.1 11.8-6.9l22.9 9.4c-5.3 11.2-17.1 19-34.7 19zm-10.5-39.5h20.9c0-2.8-4.4-7.4-10.7-7.4-6.2 0-10.2 4.6-10.2 7.4z"/>
		<path id="&lt;Compound Path&gt;" class="s0" d="m488 155.7c0 14.5-15.9 18.7-30.5 18.7-12.5 0-25-4.2-31.9-8.3 4.2-8.3 0 0 9-18.7 8.3 4.8 25.7 7.6 25.7 2.5 0-6.3-31.2 0.9-31.2-20.6 0-13.1 12.6-20.1 28.4-20.1 13.2 0 22.2 3.5 30.5 8.3l-8.3 17.4c-6.9-4.9-21.8-7-22.5-2.8-1.1 7.1 30.8-0.7 30.8 23.6z"/>
	</g>
</svg>