<?xml version="1.0" encoding="utf-8"?>
<!-- Generator: Adobe Illustrator 22.0.1, SVG Export Plug-In . SVG Version: 6.00 Build 0)  -->
<svg version="1.1" id="Capa_1" xmlns="http://www.w3.org/2000/svg" xmlns:xlink="http://www.w3.org/1999/xlink" x="0px" y="0px"
	 viewBox="0 0 277.7 52" style="enable-background:new 0 0 277.7 52;" xml:space="preserve">
<style type="text/css">
	.st0{fill:#FFFFFF;}
</style>
<g>
	<path class="st0" d="M4.2,47.3c0.1-2.1,0.3-5.1,0.3-7.8V2.9h5.4v19h0.1c1.9-3.4,5.4-5.6,10.3-5.6c7.5,0,12.8,6.3,12.8,15.5
		c0,10.8-6.8,16.2-13.6,16.2c-4.4,0-7.9-1.7-10.1-5.7H9.2l-0.3,5H4.2z M9.9,35.2c0,0.7,0.1,1.4,0.3,2c1.1,3.8,4.3,6.4,8.3,6.4
		c5.8,0,9.2-4.7,9.2-11.6c0-6.1-3.1-11.3-9-11.3c-3.8,0-7.3,2.6-8.4,6.8c-0.1,0.6-0.3,1.4-0.3,2.3V35.2z"/>
	<path class="st0" d="M40.1,33.2c0.1,7.4,4.9,10.5,10.4,10.5c3.9,0,6.3-0.7,8.4-1.6l0.9,3.9c-1.9,0.9-5.3,1.9-10.1,1.9
		c-9.3,0-14.9-6.1-14.9-15.3S40.2,16.3,49,16.3c9.9,0,12.5,8.7,12.5,14.3c0,1.1-0.1,2-0.2,2.6H40.1z M56.2,29.2
		c0.1-3.5-1.4-8.9-7.6-8.9c-5.6,0-8,5.1-8.4,8.9H56.2z"/>
	<path class="st0" d="M68.4,33.2c0.1,7.4,4.9,10.5,10.4,10.5c3.9,0,6.3-0.7,8.4-1.6l0.9,3.9c-1.9,0.9-5.3,1.9-10.1,1.9
		c-9.3,0-14.9-6.1-14.9-15.3s5.4-16.3,14.2-16.3c9.9,0,12.5,8.7,12.5,14.3c0,1.1-0.1,2-0.2,2.6H68.4z M84.5,29.2
		c0.1-3.5-1.4-8.9-7.6-8.9c-5.6,0-8,5.1-8.4,8.9H84.5z"/>
	<path class="st0" d="M91.5,44.1c0-2.3,1.6-3.9,3.8-3.9c2.2,0,3.7,1.6,3.7,3.9c0,2.3-1.4,3.9-3.8,3.9C93,48,91.5,46.3,91.5,44.1z"/>
	<path class="st0" d="M102.7,25.2c0-3.1-0.1-5.7-0.3-8.2h4.8l0.3,4.9h0.2c1.7-2.9,4.5-5.6,9.5-5.6c4.1,0,7.3,2.5,8.6,6.1h0.1
		c0.9-1.7,2.1-3,3.4-3.9c1.8-1.4,3.8-2.1,6.7-2.1c4,0,9.9,2.6,9.9,13.1v17.8h-5.4V30.2c0-5.8-2.1-9.3-6.6-9.3c-3.1,0-5.6,2.3-6.5,5
		c-0.3,0.8-0.4,1.8-0.4,2.8v18.7h-5.4V29.2c0-4.8-2.1-8.3-6.3-8.3c-3.4,0-5.9,2.8-6.8,5.5c-0.3,0.8-0.4,1.8-0.4,2.7v18.3h-5.4V25.2z
		"/>
	<path class="st0" d="M154.8,33.2c0.1,7.4,4.9,10.5,10.4,10.5c3.9,0,6.3-0.7,8.4-1.6l0.9,3.9c-1.9,0.9-5.3,1.9-10.1,1.9
		c-9.3,0-14.9-6.1-14.9-15.3s5.4-16.3,14.2-16.3c9.9,0,12.5,8.7,12.5,14.3c0,1.1-0.1,2-0.2,2.6H154.8z M171,29.2
		c0.1-3.5-1.4-8.9-7.6-8.9c-5.6,0-8,5.1-8.4,8.9H171z"/>
	<path class="st0" d="M180.1,25.2c0-3.1-0.1-5.7-0.3-8.2h4.9l0.3,5h0.1c1.5-2.9,5-5.7,10-5.7c4.2,0,10.7,2.5,10.7,12.9v18.1h-5.5
		V29.9c0-4.9-1.8-8.9-7-8.9c-3.6,0-6.4,2.6-7.4,5.6c-0.3,0.7-0.4,1.6-0.4,2.6v18.2h-5.5V25.2z"/>
	<path class="st0" d="M218,8.3V17h7.9v4.2H218v16.3c0,3.8,1.1,5.9,4.1,5.9c1.4,0,2.5-0.2,3.2-0.4l0.3,4.1c-1.1,0.4-2.8,0.8-4.9,0.8
		c-2.6,0-4.6-0.8-5.9-2.3c-1.6-1.6-2.1-4.3-2.1-7.9V21.2H208V17h4.7V9.8L218,8.3z"/>
	<path class="st0" d="M231.7,33.2c0.1,7.4,4.9,10.5,10.4,10.5c3.9,0,6.3-0.7,8.4-1.6l0.9,3.9c-1.9,0.9-5.3,1.9-10.1,1.9
		c-9.3,0-14.9-6.1-14.9-15.3s5.4-16.3,14.2-16.3c9.9,0,12.5,8.7,12.5,14.3c0,1.1-0.1,2-0.2,2.6H231.7z M247.9,29.2
		c0.1-3.5-1.4-8.9-7.6-8.9c-5.6,0-8,5.1-8.4,8.9H247.9z"/>
	<path class="st0" d="M256.2,41.7c1.6,1.1,4.5,2.2,7.3,2.2c4,0,5.9-2,5.9-4.5c0-2.6-1.6-4.1-5.6-5.6c-5.4-1.9-8-4.9-8-8.6
		c0-4.9,3.9-8.9,10.4-8.9c3.1,0,5.8,0.9,7.4,1.9l-1.4,4c-1.2-0.8-3.4-1.8-6.2-1.8c-3.3,0-5.1,1.9-5.1,4.1c0,2.5,1.8,3.6,5.8,5.1
		c5.3,2,7.9,4.6,7.9,9.1c0,5.3-4.1,9.1-11.3,9.1c-3.3,0-6.4-0.8-8.5-2.1L256.2,41.7z"/>
</g>
</svg>
