<svg version="1.2" xmlns="http://www.w3.org/2000/svg" viewBox="0 0 100 100" width="100" height="100">
	<title>Proyecto nuevo</title>
	<style>
		.s0 { fill: #000000 } 
	</style>
	<g id="&lt;Group&gt;">
	</g>
	<path id="&lt;Compound Path&gt;" fill-rule="evenodd" class="s0" d="m98 72.3c-0.1 11.7-9.8 21.5-21.8 21.7h-69.3q0 0 0 0v-89.5q0 0 0 0h69.3c12.2 0.2 21.8 10.2 21.8 21.9 0 6.2-2.8 11.9-7.1 15.9-4.2 3.8-9.6 5.9-15.2 5.9h-4.7c-0.6 0-1.2 0.5-1.1 1.1q0 0.1 0 0.3c0.2 0.4 0.6 0.7 1.1 0.7h4.7c6 0 11.9 2.3 16.1 6.7 3.9 4 6.2 9.4 6.2 15.3zm-27.3-30c0-2.2-1.8-3.9-4-3.9-2.1 0-3.9 1.7-3.9 3.9 0 2.2 1.8 3.9 3.9 3.9 2.2 0 4-1.7 4-3.9zm0 14.1c0-2.2-1.8-3.9-4-3.9-2.1 0-3.9 1.7-3.9 3.9 0 2.2 1.8 3.9 3.9 3.9 2.2 0 4-1.7 4-3.9z"/>
</svg>