<svg version="1.2" xmlns="http://www.w3.org/2000/svg" viewBox="0 0 500 500" width="500" height="500">
	<title>Proyecto nuevo</title>
	<style>
		.s0 { fill: #ffffff } 
	</style>
	<path id="&lt;Compound Path&gt;" fill-rule="evenodd" class="s0" d="m450 358.3c-0.4 51.5-42.9 94.6-95.6 95.4h-304.4q0 0 0-0.1v-393.2q0-0.1 0-0.1h304.4c53.3 1.1 95.8 45.1 95.6 96.5-0.1 27.2-12.1 52.3-31.3 70-18.2 16.6-42.2 25.5-66.9 25.5h-20.5c-2.7 0-5 2.3-4.8 5 0 0.4 0.1 0.7 0.2 1.2 0.7 2 2.7 3.2 4.8 3.2h20.6c26.4 0 52 10.3 70.5 29.2 17.2 17.6 27.6 41.6 27.4 67.4zm-154.5-131.7c0 9.5 7.7 17.3 17.2 17.3 9.5 0 17.3-7.8 17.3-17.3 0-9.5-7.8-17.3-17.3-17.3-9.5 0-17.2 7.8-17.2 17.3zm34.5 62c0-9.6-7.8-17.3-17.3-17.3-9.5 0-17.2 7.7-17.2 17.3 0 9.5 7.7 17.2 17.2 17.2 9.5 0 17.3-7.7 17.3-17.2z"/>
</svg>